<svg width="13" height="10" viewBox="0 0 13 10" fill="none" xmlns="http://www.w3.org/2000/svg">
<path d="M0.772727 10L6.55114 0.181818L12.3295 10H0.772727ZM6.55114 8.90057C6.76989 8.90057 6.95597 8.82386 7.10938 8.67045C7.26562 8.5142 7.34375 8.3267 7.34375 8.10795C7.34375 7.8892 7.26562 7.70312 7.10938 7.54972C6.95597 7.39347 6.76989 7.31534 6.55114 7.31534C6.33239 7.31534 6.14489 7.39347 5.98864 7.54972C5.83523 7.70312 5.75852 7.8892 5.75852 8.10795C5.75852 8.3267 5.83523 8.5142 5.98864 8.67045C6.14489 8.82386 6.33239 8.90057 6.55114 8.90057ZM6.03125 6.35227H7.07102L7.14773 3.45455H5.95455L6.03125 6.35227Z" fill="#FF0000"/>
</svg>
