<svg width="10" height="6" viewBox="0 0 10 6" fill="none" xmlns="http://www.w3.org/2000/svg">
<path d="M4.37114e-07 0.624999C4.51912e-07 0.455728 0.0618494 0.309244 0.185547 0.185546C0.309245 0.0618481 0.45573 -8.34387e-07 0.625 -8.19589e-07L9.375 -5.46392e-08C9.54427 -3.98411e-08 9.69076 0.0618489 9.81445 0.185547C9.93815 0.309245 10 0.455729 10 0.625C10 0.794271 9.93815 0.940755 9.81445 1.06445L5.43945 5.43945C5.31576 5.56315 5.16927 5.625 5 5.625C4.83073 5.625 4.68424 5.56315 4.56055 5.43945L0.185547 1.06445C0.0618494 0.940754 4.22316e-07 0.79427 4.37114e-07 0.624999Z" fill="#2C2C2C"/>
</svg>
